# xmcd CD database file
#
# Track frame offsets:
#	150
#	27303
#	46750
#	69523
#	91420
#	120831
#	157131
#	177764
#	205849
#	227220
#	256048
#
# Disc length: 3747 seconds
#
# Revision: 0
# Processed by: cddbd v1.5.1PL0 Copyright (c) Steve Scherf et al.
# Submitted via: CDex 1.51
#
DISCID=860ea10b
DTITLE=Deode - Rubber Dog
DYEAR=2002
DGENRE=Jazz
TTITLE0=Orpheus
TTITLE1=Money In The Meter
TTITLE2=Rubber Dog
TTITLE3=Nell
TTITLE4=South Yarra Strut
TTITLE5=Booby Trap
TTITLE6=Squint
TTITLE7=Slinky
TTITLE8=The Crying Indian
TTITLE9=Duo Of Old
TTITLE10=Eeorr
EXTD=YEAR: 2002
EXTT0=
EXTT1=
EXTT2=
EXTT3=
EXTT4=
EXTT5=
EXTT6=
EXTT7=
EXTT8=
EXTT9=
EXTT10=
PLAYORDER=
